<svg xmlns="http://www.w3.org/2000/svg" width="184" height="46" viewBox="0 0 184 46" role="img" aria-label="Power Index LoL Esports">
  <rect x="1" y="3" width="40" height="40" rx="7" fill="#0b1114" stroke="#344049" stroke-width="1.4"/>
  <g transform="translate(10 12)">
    <path fill="none" stroke="#22d3ee" stroke-linecap="round" stroke-linejoin="round" stroke-width="2" d="M6 9H4.5a2.5 2.5 0 0 1 0-5H6"/>
    <path fill="none" stroke="#22d3ee" stroke-linecap="round" stroke-linejoin="round" stroke-width="2" d="M18 9h1.5a2.5 2.5 0 0 0 0-5H18"/>
    <path fill="none" stroke="#22d3ee" stroke-linecap="round" stroke-linejoin="round" stroke-width="2" d="M4 22h16"/>
    <path fill="none" stroke="#22d3ee" stroke-linecap="round" stroke-linejoin="round" stroke-width="2" d="M10 14.66V17c0 .55-.47.98-.97 1.21C7.85 18.75 7 20.24 7 22"/>
    <path fill="none" stroke="#22d3ee" stroke-linecap="round" stroke-linejoin="round" stroke-width="2" d="M14 14.66V17c0 .55.47.98.97 1.21C16.15 18.75 17 20.24 17 22"/>
    <path fill="none" stroke="#22d3ee" stroke-linecap="round" stroke-linejoin="round" stroke-width="2" d="M18 2H6v7a6 6 0 0 0 12 0V2Z"/>
  </g>
  <text x="52" y="20" fill="#eef3f5" font-family="-apple-system, BlinkMacSystemFont, 'Segoe UI', system-ui, sans-serif" font-size="15" font-weight="700">Power Index</text>
  <text x="52" y="34" fill="#7d8b91" font-family="-apple-system, BlinkMacSystemFont, 'Segoe UI', system-ui, sans-serif" font-size="9.5" font-weight="600" letter-spacing="3">LOL ESPORTS</text>
</svg>
