<svg xmlns="http://www.w3.org/2000/svg" viewBox="0 0 64 64" role="img" aria-label="LoL Esports Power Index">
  <rect x="4" y="4" width="56" height="56" rx="7" fill="#0b1114" stroke="#344049" stroke-width="2"/>
  <g transform="translate(14 14) scale(1.5)">
    <path fill="none" stroke="#22d3ee" stroke-linecap="round" stroke-linejoin="round" stroke-width="2" d="M6 9H4.5a2.5 2.5 0 0 1 0-5H6"/>
    <path fill="none" stroke="#22d3ee" stroke-linecap="round" stroke-linejoin="round" stroke-width="2" d="M18 9h1.5a2.5 2.5 0 0 0 0-5H18"/>
    <path fill="none" stroke="#22d3ee" stroke-linecap="round" stroke-linejoin="round" stroke-width="2" d="M4 22h16"/>
    <path fill="none" stroke="#22d3ee" stroke-linecap="round" stroke-linejoin="round" stroke-width="2" d="M10 14.66V17c0 .55-.47.98-.97 1.21C7.85 18.75 7 20.24 7 22"/>
    <path fill="none" stroke="#22d3ee" stroke-linecap="round" stroke-linejoin="round" stroke-width="2" d="M14 14.66V17c0 .55.47.98.97 1.21C16.15 18.75 17 20.24 17 22"/>
    <path fill="none" stroke="#22d3ee" stroke-linecap="round" stroke-linejoin="round" stroke-width="2" d="M18 2H6v7a6 6 0 0 0 12 0V2Z"/>
  </g>
</svg>
