<svg xmlns="http://www.w3.org/2000/svg">
  <symbol id="logo-mark" viewBox="0 0 24 24">
    <path fill="currentColor" d="M19.4 3.1 5.6 9.9l4 2.4-5 8.6 10.1-6.5-3.7-2.1z"/>
    <path fill="currentColor" fill-opacity=".58" d="m20.4 7.7-7.3 5.6 3.2.7-8.2 6.9 3.3-5.4-3.1-.9 6-5.2z"/>
  </symbol>
  <symbol id="model-version" viewBox="0 0 24 24">
    <path fill="none" stroke="currentColor" stroke-linecap="round" stroke-linejoin="round" stroke-width="1.8" d="M5 17.5 9.5 13l3 3 6.5-8"/>
    <path fill="none" stroke="currentColor" stroke-linecap="round" stroke-width="1.8" d="M5 6.5h7m-7 4h4"/>
  </symbol>
  <symbol id="source-provider" viewBox="0 0 24 24">
    <path fill="none" stroke="currentColor" stroke-width="1.8" d="M5 6.5c0-1.7 3.1-3 7-3s7 1.3 7 3-3.1 3-7 3-7-1.3-7-3Z"/>
    <path fill="none" stroke="currentColor" stroke-linecap="round" stroke-width="1.8" d="M5 6.5v5c0 1.7 3.1 3 7 3s7-1.3 7-3v-5M5 11.5v5c0 1.7 3.1 3 7 3s7-1.3 7-3v-5"/>
  </symbol>
  <symbol id="uncertainty-band" viewBox="0 0 24 24">
    <path fill="none" stroke="currentColor" stroke-linecap="round" stroke-width="1.8" d="M4 15c4-5 12-5 16 0M4 18c4-5 12-5 16 0"/>
    <path fill="none" stroke="currentColor" stroke-linecap="round" stroke-width="2.2" d="M4 12c4-5 12-5 16 0"/>
  </symbol>
  <symbol id="league-strength" viewBox="0 0 24 24">
    <path fill="none" stroke="currentColor" stroke-linecap="round" stroke-width="1.8" d="M6 7h12M6 12h12M6 17h12"/>
    <circle cx="8" cy="7" r="2" fill="currentColor"/>
    <circle cx="14" cy="12" r="2" fill="currentColor"/>
    <circle cx="18" cy="17" r="2" fill="currentColor"/>
  </symbol>
  <symbol id="tournament-weight" viewBox="0 0 24 24">
    <path fill="none" stroke="currentColor" stroke-linecap="round" stroke-linejoin="round" stroke-width="1.8" d="M7 5h10v3a5 5 0 0 1-10 0zm5 8v4m-4 2h8"/>
    <path fill="none" stroke="currentColor" stroke-linecap="round" stroke-width="1.8" d="M7 7H4c0 3 1.4 5 4 5m9-5h3c0 3-1.4 5-4 5"/>
  </symbol>
  <symbol id="recency" viewBox="0 0 24 24">
    <circle cx="12" cy="12" r="8" fill="none" stroke="currentColor" stroke-width="1.8"/>
    <path fill="none" stroke="currentColor" stroke-linecap="round" stroke-width="1.8" d="M12 7v5l3.5 2"/>
  </symbol>
  <symbol id="benchmark" viewBox="0 0 24 24">
    <path fill="none" stroke="currentColor" stroke-linecap="round" stroke-linejoin="round" stroke-width="1.8" d="M4 18h16M7 18V9m5 9V5m5 13v-6"/>
    <path fill="none" stroke="currentColor" stroke-linecap="round" stroke-width="1.8" d="m5 8 3-3 3 3m4 3 2-2 2 2"/>
  </symbol>
  <symbol id="no-data" viewBox="0 0 24 24">
    <path fill="none" stroke="currentColor" stroke-linecap="round" stroke-linejoin="round" stroke-width="1.8" d="M5 6.5c0-1.7 3.1-3 7-3s7 1.3 7 3v11c0 1.7-3.1 3-7 3s-7-1.3-7-3z"/>
    <path fill="none" stroke="currentColor" stroke-linecap="round" stroke-width="1.8" d="m7 7 10 10"/>
  </symbol>
</svg>
