<svg xmlns="http://www.w3.org/2000/svg" viewBox="0 0 64 64" role="img" aria-label="LoL Esports GPR Workbench">
  <defs>
    <linearGradient id="logo-bg" x1="8" x2="56" y1="8" y2="56" gradientUnits="userSpaceOnUse">
      <stop stop-color="#172226"/>
      <stop offset="1" stop-color="#0b1114"/>
    </linearGradient>
    <linearGradient id="logo-lane" x1="14" x2="48" y1="50" y2="16" gradientUnits="userSpaceOnUse">
      <stop stop-color="#234f54"/>
      <stop offset="1" stop-color="#66b8b8"/>
    </linearGradient>
    <linearGradient id="logo-arrow" x1="35" x2="56" y1="28" y2="8" gradientUnits="userSpaceOnUse">
      <stop stop-color="#c68122"/>
      <stop offset="1" stop-color="#f3c35c"/>
    </linearGradient>
  </defs>
  <rect width="64" height="64" rx="14" fill="url(#logo-bg)"/>
  <path fill="none" stroke="#4b5f63" stroke-dasharray="18 8" stroke-linecap="round" stroke-width="3.5" d="M52.5 32A20.5 20.5 0 1 1 32 11.5"/>
  <path fill="none" stroke="#dde5df" stroke-linecap="round" stroke-width="2.2" d="M32 9v8m0 30v8M9 32h8m30 0h8"/>
  <path fill="url(#logo-lane)" d="m11 51 17-17-6-1 21-18 4 4-18 21 1 6-10 10z"/>
  <path fill="#f4f1e9" d="m17 55 20-20-6-1 19-16 3 3-16 19 1 6-11 11z"/>
  <path fill="#0b1114" d="m24 52 10-10-1-5 5 1 10-10 4 4-12 13 1 7-7-1-7 7z" opacity=".7"/>
  <path fill="url(#logo-arrow)" d="m35 29 18-19-5 17z"/>
  <path fill="none" stroke="#d79a2b" stroke-linecap="round" stroke-width="3" d="M19 20h.1m25 25h.1"/>
</svg>
