<svg xmlns="http://www.w3.org/2000/svg" width="1200" height="630" viewBox="0 0 1200 630" role="img" aria-labelledby="title desc">
  <title id="title">LoL Esports Power Index team rankings export candidate B</title>
  <desc id="desc">A product-style export showing top teams, region power scores, and data provenance for a LoL Esports Power Index snapshot.</desc>
  <defs>
    <style>
      text { letter-spacing: 0; }
      .sans { font-family: ui-sans-serif, -apple-system, BlinkMacSystemFont, "Segoe UI", system-ui, sans-serif; }
      .mono { font-family: ui-monospace, "SF Mono", "JetBrains Mono", "Cascadia Code", Menlo, monospace; font-variant-numeric: tabular-nums; }
      .bg { fill: #080c0e; }
      .shell { fill: #0b1114; stroke: #26343a; stroke-width: 1.2; }
      .header { fill: #0f1619; stroke: #26343a; stroke-width: 1; }
      .panel { fill: #10181b; stroke: #2b3a40; stroke-width: 1; }
      .panelTop { fill: #121c20; }
      .rowLead { fill: #151f22; }
      .rowSoft { fill: #0f171a; }
      .line { stroke: #26343a; stroke-width: 1; }
      .lineStrong { stroke: #34454c; stroke-width: 1; }
      .textStrong { fill: #f4f7f8; font-weight: 760; }
      .text { fill: #dce6e8; }
      .muted { fill: #9eafb4; }
      .faint { fill: #6f8288; }
      .accent { fill: #43d6ce; }
      .gold { fill: #f1c95b; }
      .up { fill: #72cf9a; }
      .down { fill: #d65b45; }
      .chip { fill: #121e22; stroke: #33454d; stroke-width: 1; }
      .barTrack { fill: #172226; }
      .barLck { fill: #f1c95b; }
      .barLpl { fill: #43d6ce; }
      .barLec { fill: #69b6c6; }
      .barLcs { fill: #8da1a7; }
    </style>
  </defs>

  <rect width="1200" height="630" class="bg" />

  <g class="sans">
    <rect x="48" y="36" width="1104" height="558" rx="8" class="shell" />
    <rect x="48" y="36" width="1104" height="92" rx="8" class="header" />
    <path d="M48 128H1152" class="lineStrong" />

    <text x="80" y="72" class="textStrong" font-size="24">LoL Esports Power Index</text>
    <text x="80" y="108" class="textStrong" font-size="34">Team rankings export</text>
    <text x="1112" y="75" text-anchor="end" class="muted" font-size="16">Fallback Open Graph view</text>
    <text x="1112" y="104" text-anchor="end" class="text" font-size="22" font-weight="700">Global team strength</text>

    <g transform="translate(80 152)">
      <rect width="704" height="344" rx="8" class="panel" />
      <rect width="704" height="66" rx="8" class="panelTop" />
      <path d="M0 58H704V66H0Z" fill="#10181b" />
      <line x1="0" y1="66.5" x2="704" y2="66.5" class="line" />
      <text x="24" y="38" class="textStrong" font-size="24">Top teams</text>
      <text x="24" y="58" class="muted" font-size="14">Ranked by team power score</text>
      <text x="680" y="38" text-anchor="end" class="muted" font-size="14">Product export</text>

      <g class="mono" font-size="12" font-weight="720">
        <text x="28" y="94" class="faint">Rank</text>
        <text x="94" y="94" class="faint">Team</text>
        <text x="358" y="94" text-anchor="middle" class="faint">Region</text>
        <text x="470" y="94" text-anchor="end" class="faint">Score</text>
        <text x="568" y="94" text-anchor="end" class="faint">Record</text>
        <text x="674" y="94" text-anchor="end" class="faint">Change</text>
      </g>
      <line x1="0" y1="108.5" x2="704" y2="108.5" class="line" />

      <g transform="translate(0 109)">
        <rect width="704" height="58" class="rowLead" />
        <rect width="4" height="58" class="barLck" />
        <text x="28" y="37" class="mono gold" font-size="22" font-weight="820">1</text>
        <text x="94" y="35" class="mono textStrong" font-size="24" font-weight="860">BLG</text>
        <text x="154" y="35" class="text" font-size="15">Bilibili Gaming</text>
        <rect x="331" y="17" width="54" height="24" rx="5" class="chip" />
        <text x="358" y="34" text-anchor="middle" class="mono text" font-size="12" font-weight="760">LPL</text>
        <text x="470" y="35" text-anchor="end" class="mono gold" font-size="20" font-weight="840">2314</text>
        <text x="568" y="35" text-anchor="end" class="mono text" font-size="16" font-weight="760">77-31</text>
        <text x="674" y="35" text-anchor="end" class="text" font-size="13" font-weight="680">Steady</text>
      </g>

      <g transform="translate(0 167)">
        <line x1="0" y1="0.5" x2="704" y2="0.5" class="line" />
        <rect width="704" height="58" class="rowSoft" />
        <text x="28" y="37" class="mono accent" font-size="21" font-weight="800">2</text>
        <text x="94" y="35" class="mono textStrong" font-size="23" font-weight="840">HLE</text>
        <text x="154" y="35" class="text" font-size="15">Hanwha Life Esports</text>
        <rect x="331" y="17" width="54" height="24" rx="5" class="chip" />
        <text x="358" y="34" text-anchor="middle" class="mono text" font-size="12" font-weight="760">LCK</text>
        <text x="470" y="35" text-anchor="end" class="mono textStrong" font-size="19" font-weight="820">2262</text>
        <text x="568" y="35" text-anchor="end" class="mono text" font-size="16" font-weight="760">69-26</text>
        <text x="674" y="35" text-anchor="end" class="mono up" font-size="16" font-weight="820">+1</text>
      </g>

      <g transform="translate(0 225)">
        <line x1="0" y1="0.5" x2="704" y2="0.5" class="line" />
        <text x="28" y="37" class="mono accent" font-size="21" font-weight="800">3</text>
        <text x="94" y="35" class="mono textStrong" font-size="23" font-weight="840">T1</text>
        <text x="154" y="35" class="text" font-size="15">T1</text>
        <rect x="331" y="17" width="54" height="24" rx="5" class="chip" />
        <text x="358" y="34" text-anchor="middle" class="mono text" font-size="12" font-weight="760">LCK</text>
        <text x="470" y="35" text-anchor="end" class="mono textStrong" font-size="19" font-weight="820">2177</text>
        <text x="568" y="35" text-anchor="end" class="mono text" font-size="16" font-weight="760">73-29</text>
        <text x="674" y="35" text-anchor="end" class="mono down" font-size="16" font-weight="820">-1</text>
      </g>

      <g transform="translate(0 283)">
        <line x1="0" y1="0.5" x2="704" y2="0.5" class="line" />
        <rect width="704" height="58" class="rowSoft" />
        <text x="28" y="37" class="mono accent" font-size="21" font-weight="800">4</text>
        <text x="94" y="35" class="mono textStrong" font-size="23" font-weight="840">GEN</text>
        <text x="154" y="35" class="text" font-size="15">Gen.G</text>
        <rect x="331" y="17" width="54" height="24" rx="5" class="chip" />
        <text x="358" y="34" text-anchor="middle" class="mono text" font-size="12" font-weight="760">LCK</text>
        <text x="470" y="35" text-anchor="end" class="mono textStrong" font-size="19" font-weight="820">2177</text>
        <text x="568" y="35" text-anchor="end" class="mono text" font-size="16" font-weight="760">74-17</text>
        <text x="674" y="35" text-anchor="end" class="text" font-size="13" font-weight="680">Steady</text>
      </g>
    </g>

    <g transform="translate(810 152)">
      <rect width="302" height="126" rx="8" class="panel" />
      <text x="22" y="35" class="textStrong" font-size="20">Current leader</text>
      <text x="22" y="58" class="muted" font-size="14">Bilibili Gaming</text>
      <text x="280" y="58" text-anchor="end" class="mono gold" font-size="32" font-weight="860">2314</text>
      <text x="280" y="80" text-anchor="end" class="mono muted" font-size="12" font-weight="720">Power score</text>
      <text x="22" y="105" class="mono gold" font-size="52" font-weight="850">#1</text>
      <text x="116" y="102" class="mono textStrong" font-size="48" font-weight="880">BLG</text>
      <text x="280" y="107" text-anchor="end" class="mono muted" font-size="14" font-weight="720">77-31</text>
    </g>

    <g transform="translate(810 300)">
      <rect width="302" height="196" rx="8" class="panel" />
      <rect width="302" height="64" rx="8" class="panelTop" />
      <path d="M0 56H302V64H0Z" fill="#10181b" />
      <line x1="0" y1="64.5" x2="302" y2="64.5" class="line" />
      <text x="22" y="31" class="textStrong" font-size="20">Region context</text>
      <text x="22" y="51" class="muted" font-size="13">Region power score</text>

      <g class="mono" font-size="13" font-weight="780">
        <g transform="translate(22 88)">
          <text x="0" y="0" class="textStrong">LCK</text>
          <text x="258" y="0" text-anchor="end" class="gold">2205</text>
          <rect x="0" y="11" width="258" height="10" rx="3" class="barTrack" />
          <rect x="0" y="11" width="258" height="10" rx="3" class="barLck" />
        </g>
        <g transform="translate(22 118)">
          <text x="0" y="0" class="textStrong">LPL</text>
          <text x="258" y="0" text-anchor="end" class="text">2108</text>
          <rect x="0" y="11" width="258" height="10" rx="3" class="barTrack" />
          <rect x="0" y="11" width="247" height="10" rx="3" class="barLpl" />
        </g>
        <g transform="translate(22 148)">
          <text x="0" y="0" class="textStrong">LEC</text>
          <text x="258" y="0" text-anchor="end" class="text">2005</text>
          <rect x="0" y="11" width="258" height="10" rx="3" class="barTrack" />
          <rect x="0" y="11" width="235" height="10" rx="3" class="barLec" />
        </g>
        <g transform="translate(22 178)">
          <text x="0" y="0" class="textStrong">LCS</text>
          <text x="258" y="0" text-anchor="end" class="muted">1911</text>
          <rect x="0" y="11" width="258" height="10" rx="3" class="barTrack" />
          <rect x="0" y="11" width="224" height="10" rx="3" class="barLcs" />
        </g>
      </g>
    </g>

    <g transform="translate(80 526)">
      <rect width="1032" height="44" rx="8" fill="#0f171a" stroke="#26343a" />
      <text x="20" y="28" class="mono text" font-size="14" font-weight="700">Sources: Oracle's Elixir + Leaguepedia Cargo | Model: transparent-gpr-v0.0.0 | Snapshot: 2026-07-08 | Matches: 4,200</text>
    </g>
  </g>
</svg>
