<svg xmlns="http://www.w3.org/2000/svg" width="240" height="145" viewBox="0 0 2400 1450" role="img" aria-label="LPL logo">
  <g fill="#f60909">
    <path d="M6 1442c5-5 31-26 57-47 44-35 60-61 153-247l104-207-57-43-56-43 203-3c111-1 205 0 207 2 3 2-45 101-106 219S400 1290 400 1294c0 3 83 6 185 6h185l-37 75-37 75H346c-193 0-346-4-340-8z"/>
    <path d="M780 1444c0-3 56-114 125-248s125-247 125-252c0-5-26-27-56-49l-56-40 406-3 406-2 65 47c35 27 64 51 65 56 1 20-94 192-125 226-65 71-107 84-294 89l-163 4-57-40-57-40-65 129-64 129H908c-71 0-128-3-128-6zm733-345c21-9 67-74 67-93 0-3-72-6-160-6h-160l-25 50c-14 27-25 52-25 55 0 10 279 5 303-6z"/>
    <path d="M1696 1393c54-52 72-79 157-250 54-105 97-195 97-200 0-4-23-24-50-43s-50-38-50-42c0-5 90-8 200-8s200 3 200 6-50 104-110 225l-110 219h185c102 0 185 3 185 6s-16 37-36 75l-36 69h-693l61-57z"/>
    <path d="M791 480c56-109 106-197 111-194 13 8 88 122 88 133 0 6-10 31-22 56-12 24-19 47-16 50 3 3 49 4 102 3l97-3-105-155c-58-85-103-156-101-158 3-4 577 429 610 459 5 5-178 9-429 9H689l102-200z"/>
    <path d="M1197 313C984 150 812 15 814 13s122 55 267 128c145 72 310 153 367 180l102 48 30-59c17-33 30-64 30-70 0-7-34-10-98-9l-98 1-149-75-150-76 378-1h379l-135 262c-73 144-138 263-143 265-5 1-183-131-397-294z"/>
  </g>
</svg>
